#!OML:ASF H:\Terrain\Patient Classification 1\Walking\liu\liu.ASF
:FULLY-SPECIFIED
:DEGREES
65
root 9.083530 16.306601 -27.322100 5.199890 -11.790200 0.863372
lowerback -5.415047 0.451640 -2.841399
upperback -2.516195 0.698644 2.700390
thorax 0.383478 0.379749 4.415840
lowerneck -24.706221 -4.319084 -12.767810
upperneck 19.752150 -5.013107 14.084180
head 10.995557 -1.598762 6.404244
rclavicle -0.000000 -0.000000
rhumerus -47.566750 14.364130 -99.939514
rradius 41.883602
rwrist -21.540310
rhand -32.778679 -28.747181
rfingers 7.837522
rthumb -3.435465 -61.699768
lclavicle -0.000000 -0.000000
lhumerus -43.028259 -6.821056 97.554268
lradius 23.154449
lwrist -3.584504
lhand 0.926000 -19.349110
lfingers 7.837522
lthumb 29.036041 11.651530
rfemur -4.678278 -0.822955 16.930431
rtibia 63.056622
rfoot 7.000169 -11.553961
rtoes -4.684240
lfemur -29.292120 8.450377 -26.625830
ltibia 35.486771
lfoot -11.478280 8.542106
ltoes -3.822434
66
root 9.103330 16.334600 -27.204800 5.220490 -11.602000 0.617442
lowerback -5.489330 0.348102 -2.479851
upperback -2.403698 0.543679 2.792944
thorax 0.557425 0.295402 4.300681
lowerneck -24.592701 -4.440887 -12.756260
upperneck 19.452291 -5.152356 13.998271
head 10.885985 -1.675707 6.336407
rclavicle 0.000000 -0.000000
rhumerus -47.350822 14.188681 -99.681892
rradius 41.920670
rwrist -21.652842
rhand -32.817513 -28.198942
rfingers 7.837522
rthumb -3.472986 -61.150871
lclavicle 0.000000 -0.000000
lhumerus -42.164543 -6.532416 97.147820
lradius 23.277321
lwrist -4.199140
lhand 0.739265 -19.482651
lfingers 7.837522
lthumb 28.857290 11.544721
rfemur -6.011654 -0.910768 17.505180
rtibia 64.370239
rfoot 5.534573 -11.825991
rtoes -2.514314
lfemur -28.429720 8.100752 -26.417490
ltibia 34.807301
lfoot -11.331651 8.768749
ltoes -4.805064
67
root 9.119440 16.354000 -27.100300 5.258760 -11.334100 0.578659
lowerback -5.633727 0.217181 -2.412498
upperback -2.225245 0.365792 2.833281
thorax 0.836902 0.198871 4.297128
lowerneck -24.823151 -4.480014 -12.696970
upperneck 19.426991 -5.156316 13.817321
head 10.912055 -1.686344 6.258582
rclavicle -0.000000 0.000000
rhumerus -47.065590 14.215301 -99.501389
rradius 42.045849
rwrist -21.848200
rhand -32.808052 -28.236891
rfingers 7.837522
rthumb -3.463856 -61.189041
lclavicle -0.000000 0.000000
lhumerus -41.227669 -7.674645 97.442398
lradius 23.567282
lwrist -3.353537
lhand 0.558346 -19.100180
lfingers 7.837522
lthumb 28.684151 11.952821
rfemur -7.481210 -1.088117 17.893589
rtibia 65.582443
rfoot 4.262346 -11.747670
rtoes -2.878777
lfemur -27.709551 7.800309 -26.457310
ltibia 34.158852
lfoot -11.241120 8.835091
ltoes -4.509945
68
root 9.136780 16.371700 -26.986900 5.332770 -10.993900 0.868951
lowerback -5.801950 0.049401 -2.740364
upperback -2.237400 0.160812 2.804021
thorax 0.934050 0.095848 4.442152
lowerneck -24.881889 -4.349345 -12.774080
upperneck 19.648750 -4.978853 13.894980
head 10.980223 -1.599191 6.337101
rclavicle -0.000000 -0.000000
rhumerus -47.107059 14.221020 -99.374771
rradius 42.207989
rwrist -21.929270
rhand -33.001980 -28.812410
rfingers 7.837522
rthumb -3.651164 -61.761810
lclavicle -0.000000 -0.000000
lhumerus -40.620255 -9.008185 97.889107
lradius 23.798941
lwrist -2.034197
lhand -0.001000 -19.317320
lfingers 7.837522
lthumb 28.148451 11.813670
rfemur -8.940075 -1.388508 17.839470
rtibia 66.662643
rfoot 3.031050 -11.264551
rtoes -5.012425
lfemur -27.067039 7.383981 -26.927450
ltibia 33.572773
lfoot -11.271700 8.863130
ltoes -4.636423
69
root 9.154240 16.392799 -26.870399 5.392540 -10.605600 1.068640
lowerback -5.872581 -0.127023 -2.917849
upperback -2.312343 -0.063291 2.755995
thorax 0.915872 -0.014366 4.479772
lowerneck -24.882219 -4.259420 -12.731620
upperneck 19.953230 -4.903734 13.932160
head 11.077551 -1.557336 6.366921
rclavicle -0.000000 -0.000000
rhumerus -47.262932 14.043921 -99.233421
rradius 42.484203
rwrist -21.906832
rhand -33.073372 -28.738050
rfingers 7.837522
rthumb -3.720079 -61.686241
lclavicle -0.000000 -0.000000
lhumerus -39.895462 -9.399292 97.717400
lradius 23.779581
lwrist -2.124705
lhand -0.473368 -20.146830
lfingers 7.837522
lthumb 27.695911 11.048510
rfemur -10.314909 -1.596034 17.933960
rtibia 67.586647
rfoot 1.307361 -11.025960
rtoes -7.034313
lfemur -26.464460 6.926381 -27.288469
ltibia 33.056980
lfoot -11.341990 8.946564
ltoes -5.399130
70
root 9.173080 16.405800 -26.762699 5.254440 -10.254700 0.980677
lowerback -5.700508 -0.246199 -2.703646
upperback -2.210758 -0.235694 2.750748
thorax 0.939852 -0.103360 4.342239
lowerneck -25.100351 -4.273819 -12.703790
upperneck 20.341089 -4.956369 13.978470
head 11.263560 -1.567731 6.388228
rclavicle -0.000000 -0.000000
rhumerus -47.180763 13.912251 -99.121109
rradius 42.620049
rwrist -22.138380
rhand -33.339241 -27.226982
rfingers 7.837522
rthumb -3.976830 -60.170994
lclavicle -0.000000 -0.000000
lhumerus -38.901062 -9.854306 97.470558
lradius 23.816320
lwrist -2.409726
lhand -0.744669 -20.084789
lfingers 7.837522
lthumb 27.435980 11.146851
rfemur -11.483010 -1.607397 18.430281
rtibia 68.396133
rfoot -0.646707 -11.599280
rtoes -9.329287
lfemur -25.652441 6.461048 -27.240841
ltibia 32.607300
lfoot -11.542631 9.107627
ltoes -5.735994
71
root 9.191400 16.415600 -26.648701 5.088980 -10.130800 0.888286
lowerback -5.584304 -0.281084 -2.555938
upperback -2.091562 -0.292901 2.842114
thorax 1.002678 -0.135049 4.350005
lowerneck -24.924572 -4.362875 -12.980000
upperneck 20.261892 -5.057074 14.217170
head 11.231660 -1.612754 6.505697
rclavicle 0.000000 0.000000
rhumerus -47.113438 13.980670 -98.931252
rradius 42.572971
rwrist -22.508421
rhand -33.585640 -25.802370
rfingers 7.837522
rthumb -4.214749 -58.742203
lclavicle 0.000000 0.000000
lhumerus -38.088821 -10.151010 97.405998
lradius 24.193621
lwrist -2.404666
lhand -0.655187 -19.381231
lfingers 7.837522
lthumb 27.521669 11.838421
rfemur -12.561231 -1.347775 18.856201
rtibia 69.080551
rfoot -2.944931 -11.930490
rtoes -10.634459
lfemur -24.779261 6.202240 -27.200911
ltibia 32.274330
lfoot -11.930270 9.281008
ltoes -5.718218
72
root 9.201030 16.424000 -26.545000 5.214920 -9.949840 1.147620
lowerback -5.676935 -0.402636 -2.954699
upperback -2.206281 -0.434040 2.874267
thorax 0.950401 -0.201831 4.601498
lowerneck -24.684660 -4.355208 -12.989790
upperneck 20.226582 -5.052806 14.161071
head 11.172920 -1.625415 6.483378
rclavicle -0.000000 -0.000000
rhumerus -47.402081 14.113660 -98.799477
rradius 42.848965
rwrist -22.777811
rhand -33.430321 -25.346750
rfingers 7.837522
rthumb -4.064709 -58.289223
lclavicle -0.000000 -0.000000
lhumerus -37.543442 -10.280149 97.297646
lradius 24.734491
lwrist -2.373404
lhand -0.497011 -18.983799
lfingers 7.837522
lthumb 27.673250 12.214621
rfemur -14.095510 -1.169069 18.898659
rtibia 69.643967
rfoot -4.646081 -11.792001
rtoes -11.421301
lfemur -24.376881 6.076818 -27.628811
ltibia 31.956430
lfoot -12.182720 9.280282
ltoes -5.406181
73
root 9.209920 16.424700 -26.448700 5.326930 -9.585450 1.406350
lowerback -5.723916 -0.561233 -3.279485
upperback -2.293104 -0.627891 2.839760
thorax 0.907215 -0.295583 4.738547
lowerneck -24.565750 -4.279594 -12.675740
upperneck 20.282240 -4.983407 13.800270
head 11.142450 -1.614921 6.305255
rclavicle -0.000000 0.000000
rhumerus -47.642101 14.115420 -98.726212
rradius 43.258709
rwrist -23.073601
rhand -33.366302 -24.823042
rfingers 7.837522
rthumb -4.002944 -57.766502
lclavicle -0.000000 0.000000
lhumerus -36.825031 -10.902596 97.241211
lradius 25.102551
lwrist -1.998986
lhand -0.571087 -18.793390
lfingers 7.837522
lthumb 27.602301 12.414930
rfemur -15.650140 -1.218547 18.996010
rtibia 70.021713
rfoot -5.821838 -11.895070
rtoes -12.649230
lfemur -23.964710 5.863209 -28.045271
ltibia 31.573299
lfoot -12.382370 9.198794
ltoes -5.273235
74
root 9.227340 16.430000 -26.332899 5.100230 -9.410190 1.564650
lowerback -5.569773 -0.605943 -3.419328
upperback -2.217050 -0.684467 2.868107
thorax 0.906579 -0.324574 4.844664
lowerneck -24.162821 -4.247375 -12.531421
upperneck 19.996241 -4.930387 13.493260
head 10.947518 -1.626636 6.160099
rclavicle 0.000000 0.000000
rhumerus -47.690170 14.214750 -98.519852
rradius 43.413589
rwrist -23.349371
rhand -33.297993 -24.755060
rfingers 7.837522
rthumb -3.936933 -57.699730
lclavicle 0.000000 0.000000
lhumerus -35.977154 -11.228470 97.181145
lradius 25.251820
lwrist -1.953248
lhand -0.706606 -18.965099
lfingers 7.837522
lthumb 27.472502 12.261370
rfemur -16.639481 -1.192686 19.042540
rtibia 70.240280
rfoot -7.612484 -11.868890
rtoes -11.972071
lfemur -22.993299 5.516951 -28.314220
ltibia 31.162010
lfoot -12.899150 9.412193
ltoes -4.526115
